<svg width="149" height="34" viewBox="0 0 149 34" fill="none" xmlns="http://www.w3.org/2000/svg">
<rect width="148.792" height="33.9945" rx="16.9972" fill="black"/>
<path fill-rule="evenodd" clip-rule="evenodd" d="M65.6736 8.4102C65.6736 8.53711 65.73 8.6459 65.8429 8.73655C65.9617 8.82267 66.1042 8.86573 66.2705 8.86573C66.4368 8.86573 66.5794 8.82153 66.6982 8.73315C66.817 8.64476 66.8764 8.53711 66.8764 8.4102C66.8764 8.27875 66.817 8.16884 66.6982 8.08045C66.5794 7.99207 66.4368 7.94788 66.2705 7.94788C66.1042 7.94788 65.9631 7.9932 65.8473 8.08385C65.7315 8.17451 65.6736 8.28329 65.6736 8.4102ZM53.6811 12.9179H54.385V10.5587H51.3646V11.157H53.5564C53.5445 11.2929 53.5014 11.4289 53.4272 11.5649C53.3529 11.7009 53.243 11.8357 53.0975 11.9694C52.952 12.1031 52.75 12.2108 52.4916 12.2924C52.2333 12.374 51.9378 12.4148 51.6051 12.4148C50.9993 12.4148 50.481 12.2482 50.0504 11.915C49.6197 11.5819 49.4044 11.1116 49.4044 10.5043C49.4044 9.90142 49.6242 9.43457 50.0637 9.10369C50.5033 8.77281 51.029 8.60737 51.6408 8.60737C52.1278 8.60737 52.5481 8.70368 52.9015 8.89632C53.2549 9.08896 53.5029 9.35978 53.6455 9.70879L54.4384 9.45043C54.2543 9.01077 53.9113 8.65836 53.4093 8.3932C52.9074 8.12804 52.3179 7.99547 51.6408 7.99547C51.1062 7.99547 50.6058 8.08838 50.1395 8.27422C49.6732 8.46006 49.2856 8.74788 48.9768 9.13768C48.6679 9.52749 48.5135 9.98301 48.5135 10.5043C48.5135 11.0255 48.6605 11.481 48.9545 11.8708C49.2485 12.2606 49.6242 12.5496 50.0816 12.7377C50.5389 12.9258 51.0379 13.0199 51.5784 13.0199C52.0714 13.0199 52.4931 12.9428 52.8436 12.7887C53.194 12.6346 53.4465 12.451 53.6009 12.238L53.6811 12.9179ZM58.528 10.9462H56.1847C56.2025 10.7196 56.3184 10.5235 56.5322 10.3581C56.746 10.1926 57.0193 10.1099 57.3519 10.1099C57.7202 10.1099 58.0053 10.1881 58.2072 10.3445C58.4092 10.5009 58.5161 10.7014 58.528 10.9462ZM58.6527 11.7961L59.3744 11.9864C59.2497 12.2901 59.018 12.5383 58.6794 12.7309C58.3409 12.9235 57.931 13.0199 57.4499 13.0199C56.85 13.0199 56.3406 12.8623 55.9219 12.5473C55.5031 12.2323 55.2938 11.8074 55.2938 11.2725C55.2938 10.7739 55.4957 10.3615 55.8996 10.0351C56.3035 9.70879 56.7846 9.54562 57.343 9.54562C57.9904 9.54562 58.4953 9.70086 58.8576 10.0113C59.22 10.3218 59.4011 10.7377 59.4011 11.2589C59.4011 11.3405 59.3952 11.4085 59.3833 11.4629H56.158C56.1639 11.753 56.2902 11.991 56.5367 12.1768C56.7832 12.3626 57.0876 12.4555 57.4499 12.4555C58.0617 12.4555 58.4626 12.2357 58.6527 11.7961ZM61.5929 9.6476V8.61417H60.8267V9.14448C60.8267 9.29406 60.7717 9.4153 60.6619 9.50822C60.552 9.60114 60.3871 9.6476 60.1674 9.6476H59.9357V10.2255H60.7554V12.0204C60.7554 12.315 60.8623 12.5439 61.0762 12.7071C61.29 12.8703 61.581 12.9519 61.9493 12.9519C62.1869 12.9519 62.377 12.9315 62.5195 12.8907V12.3468C62.4245 12.3649 62.3146 12.374 62.1899 12.374C61.976 12.374 61.8231 12.3377 61.731 12.2652C61.639 12.1927 61.5929 12.0793 61.5929 11.9252V10.2255H62.5195V9.6476H61.5929ZM66.6893 12.9179H65.8607V9.6476H66.6893V12.9179ZM69.2375 8.61417V9.6476H70.1641V10.2255H69.2375V11.9252C69.2375 12.0793 69.2835 12.1927 69.3756 12.2652C69.4676 12.3377 69.6206 12.374 69.8344 12.374C69.9592 12.374 70.069 12.3649 70.1641 12.3468V12.8907C70.0215 12.9315 69.8315 12.9519 69.5939 12.9519C69.2256 12.9519 68.9345 12.8703 68.7207 12.7071C68.5069 12.5439 68.4 12.315 68.4 12.0204V10.2255H67.5803V9.6476H67.8119C68.0317 9.6476 68.1965 9.60114 68.3064 9.50822C68.4163 9.4153 68.4712 9.29406 68.4712 9.14448V8.61417H69.2375ZM75.3406 12.4487C74.9664 12.4487 74.6486 12.3468 74.3873 12.1428C74.1319 11.9343 74.0042 11.6465 74.0042 11.2793C74.0042 10.9167 74.1334 10.6323 74.3917 10.4261C74.6501 10.2198 74.9664 10.1167 75.3406 10.1167C75.7148 10.1167 76.0311 10.2198 76.2895 10.4261C76.5479 10.6323 76.6771 10.9167 76.6771 11.2793C76.6771 11.6465 76.5479 11.9332 76.2895 12.1394C76.0311 12.3456 75.7148 12.4487 75.3406 12.4487ZM73.7636 10.0419C74.1794 9.71105 74.7051 9.54562 75.3406 9.54562C75.9762 9.54562 76.5004 9.70992 76.9132 10.0385C77.326 10.3672 77.5324 10.7807 77.5324 11.2793C77.5324 11.7825 77.3275 12.1983 76.9177 12.5269C76.5078 12.8555 75.9821 13.0199 75.3406 13.0199C74.6991 13.0199 74.1735 12.8555 73.7636 12.5269C73.3538 12.1983 73.1488 11.7825 73.1488 11.2793C73.1488 10.7807 73.3538 10.3683 73.7636 10.0419ZM79.4391 12.9179V11.0278C79.4391 10.7694 79.5267 10.5553 79.7019 10.3853C79.8772 10.2153 80.1222 10.1303 80.437 10.1303C81.1022 10.1303 81.4349 10.4045 81.4349 10.953V12.9179H82.2724V10.8442C82.2724 10.4635 82.1402 10.153 81.8759 9.91276C81.6116 9.67253 81.2329 9.55242 80.7399 9.55242C80.1459 9.55242 79.7064 9.74052 79.4213 10.1167V9.6476H78.6016V12.9179H79.4391Z" fill="white"/>
<path fill-rule="evenodd" clip-rule="evenodd" d="M58.291 20.5708V24.4761H56.9082L56.7799 23.497C56.338 24.0627 55.2973 24.6392 53.6864 24.6392C51.0492 24.6392 48.7112 23.1598 48.7112 20.6143C48.7112 18.0797 51.1775 16.6002 53.8005 16.6002C56.2524 16.6002 57.8205 17.6772 58.3623 18.9499L56.7514 19.4177C56.4092 18.5474 55.4114 17.8077 53.8005 17.8077C52.1611 17.8077 50.4504 18.6997 50.4504 20.6143C50.4504 22.4962 52.047 23.4426 53.7862 23.4426C55.8248 23.4426 56.5946 22.3766 56.6801 21.713H53.3443V20.5708H58.291ZM61.3274 21.8218C61.3274 22.9205 62.254 23.5079 63.2662 23.5079C64.2926 23.5079 65.2049 22.9314 65.2049 21.8218C65.2049 20.7231 64.2926 20.1574 63.2662 20.1574C62.254 20.1574 61.3274 20.7231 61.3274 21.8218ZM63.2662 19.0152C61.1991 19.0152 59.6738 20.2009 59.6738 21.8218C59.6738 23.4535 61.1991 24.6392 63.2662 24.6392C65.3475 24.6392 66.8728 23.4535 66.8728 21.8218C66.8728 20.2009 65.3475 19.0152 63.2662 19.0152ZM69.5814 21.8218C69.5814 22.9205 70.508 23.5079 71.5201 23.5079C72.5465 23.5079 73.4589 22.9314 73.4589 21.8218C73.4589 20.7231 72.5465 20.1574 71.5201 20.1574C70.508 20.1574 69.5814 20.7231 69.5814 21.8218ZM71.5201 19.0152C69.4531 19.0152 67.9277 20.2009 67.9277 21.8218C67.9277 23.4535 69.4531 24.6392 71.5201 24.6392C73.6014 24.6392 75.1268 23.4535 75.1268 21.8218C75.1268 20.2009 73.6014 19.0152 71.5201 19.0152ZM79.5318 26.7061C77.6928 26.7061 76.4098 25.8358 76.2245 24.7698L77.7498 24.4652C77.8639 25.1179 78.5339 25.6074 79.489 25.6074C80.8005 25.6074 81.4563 25.0961 81.4563 24.0192V23.4644C81.1569 23.8778 80.4584 24.2367 79.4462 24.2367C77.593 24.2367 76.2387 23.1489 76.2387 21.6586C76.2387 20.2444 77.536 19.0805 79.4462 19.0805C80.5296 19.0805 81.1997 19.4177 81.499 19.8528V19.1784H83.0956V23.9757C83.0956 25.3898 82.1405 26.7061 79.5318 26.7061ZM79.7171 23.1598C78.6337 23.1598 77.9066 22.5833 77.9066 21.6586C77.9066 20.7557 78.6622 20.1683 79.7171 20.1683C80.7435 20.1683 81.499 20.7557 81.499 21.6586C81.499 22.5724 80.772 23.1598 79.7171 23.1598ZM86.7736 16.6002V24.4761H85.1199V16.6002H86.7736ZM90.0666 21.2452C90.1236 20.6796 90.7224 20.0704 91.763 20.0704C92.9035 20.0704 93.4452 20.6252 93.4737 21.2452H90.0666ZM91.9198 23.5514C92.9177 23.5514 93.4309 23.1489 93.659 22.6268L95.0561 22.964C94.6854 23.8886 93.5877 24.6392 91.9198 24.6392C90.0381 24.6392 88.3702 23.5949 88.3702 21.8C88.3702 20.1248 89.9953 19.0152 91.7488 19.0152C93.8871 19.0152 95.1416 20.0921 95.1416 21.7674C95.1416 21.9741 95.1131 22.1481 95.0988 22.1699H90.0238C90.0666 22.9749 90.8934 23.5514 91.9198 23.5514ZM102.113 20.3097V17.9165H103.895C104.978 17.9165 105.634 18.3843 105.634 19.124C105.634 19.8528 104.978 20.3097 103.895 20.3097H102.113ZM107.373 19.1131C107.373 20.4729 106.09 21.4628 104.151 21.4628H102.113V24.4761H100.402V16.7634H104.151C106.09 16.7634 107.373 17.7642 107.373 19.1131ZM110.495 24.4761V16.6002H108.841V24.4761H110.495ZM114.558 24.6392C113.104 24.6392 112.205 23.8778 112.205 23.0401C112.205 22.0937 113.118 21.5716 114.301 21.441L116.083 21.2343C116.482 21.1908 116.596 21.0385 116.596 20.8536C116.596 20.4076 116.197 20.0486 115.285 20.0486C114.415 20.0486 113.93 20.4729 113.859 21.0059L112.348 20.7448C112.476 19.8311 113.56 19.0152 115.27 19.0152C117.409 19.0152 118.221 19.9398 118.221 20.995L118.223 23.7438C118.229 24.0067 118.256 24.2114 118.278 24.3383L118.307 24.4761H116.767C116.753 24.4434 116.696 24.2259 116.696 23.8016C116.368 24.2041 115.684 24.6392 114.558 24.6392ZM114.871 23.6493C114.216 23.6493 113.859 23.323 113.859 22.964C113.859 22.5289 114.273 22.3113 114.786 22.246L116.596 22.0393V22.2787C116.596 23.3121 115.798 23.6493 114.871 23.6493ZM120.559 26.6191H122.327L126.746 19.1784H124.993L123.125 22.5289L121.129 19.1784H119.262L122.227 23.8451L120.559 26.6191Z" fill="white"/>
<path d="M17.9048 9.60657C17.8547 9.74297 17.8195 9.88932 17.8195 10.0571V23.8687C17.8195 24.0342 17.8533 24.1798 17.9025 24.3144L27.9949 16.9703L17.9048 9.60657Z" fill="#48A0DC"/>
<path d="M20.1504 9.07012C19.6806 8.85009 19.2175 8.79502 18.8264 8.871L28.961 16.2673L31.9338 14.1045L20.1504 9.07012Z" fill="#88C057"/>
<path d="M36.278 15.9606L33.1325 14.6167L29.9112 16.9608L33.1929 19.3564L36.2537 18.0655C37.7464 17.4121 37.2013 16.3591 36.278 15.9606Z" fill="#FFCC66"/>
<path d="M28.9448 17.6635L18.7975 25.0465C19.1946 25.132 19.6683 25.0812 20.15 24.8556L31.9703 19.8714L28.9448 17.6635Z" fill="#ED7161"/>
</svg>
