<svg width="188" height="19" viewBox="0 0 188 19" fill="none" xmlns="http://www.w3.org/2000/svg">
<path d="M0.744 9.36C0.744 8.32 0.928 7.296 1.296 6.288C1.68 5.28 2.232 4.368 2.952 3.552C3.672 2.736 4.552 2.088 5.592 1.608C6.632 1.112 7.816 0.863999 9.144 0.863999C10.696 0.863999 12.048 1.208 13.2 1.896C14.352 2.584 15.208 3.48 15.768 4.584L13.224 6.336C12.936 5.696 12.56 5.192 12.096 4.824C11.632 4.456 11.128 4.192 10.584 4.032C10.056 3.872 9.544 3.792 9.048 3.792C8.216 3.792 7.488 3.96 6.864 4.296C6.256 4.632 5.744 5.072 5.328 5.616C4.912 6.16 4.6 6.768 4.392 7.44C4.2 8.112 4.104 8.784 4.104 9.456C4.104 10.464 4.312 11.408 4.728 12.288C5.144 13.152 5.728 13.856 6.48 14.4C7.232 14.944 8.104 15.216 9.096 15.216C9.608 15.216 10.136 15.128 10.68 14.952C11.24 14.776 11.752 14.496 12.216 14.112C12.68 13.728 13.04 13.232 13.296 12.624L16.008 14.184C15.656 15.032 15.104 15.752 14.352 16.344C13.6 16.92 12.752 17.368 11.808 17.688C10.864 17.992 9.928 18.144 9 18.144C7.784 18.144 6.672 17.896 5.664 17.4C4.672 16.888 3.808 16.216 3.072 15.384C2.336 14.536 1.76 13.592 1.344 12.552C0.944 11.496 0.744 10.432 0.744 9.36ZM19.4531 14.28C19.4531 13.464 19.6771 12.752 20.1251 12.144C20.5891 11.52 21.2291 11.04 22.0451 10.704C22.8611 10.368 23.7971 10.2 24.8531 10.2C25.3811 10.2 25.9171 10.248 26.4611 10.344C27.0051 10.424 27.4771 10.544 27.8771 10.704V10.032C27.8771 9.232 27.6371 8.616 27.1571 8.184C26.6931 7.752 25.9971 7.536 25.0691 7.536C24.3811 7.536 23.7251 7.656 23.1011 7.896C22.4771 8.136 21.8211 8.488 21.1331 8.952L20.1011 6.84C20.9331 6.296 21.7811 5.888 22.6451 5.616C23.5251 5.344 24.4451 5.208 25.4051 5.208C27.1971 5.208 28.5891 5.656 29.5811 6.552C30.5891 7.448 31.0931 8.728 31.0931 10.392V14.4C31.0931 14.752 31.1491 15 31.2611 15.144C31.3731 15.272 31.5731 15.352 31.8611 15.384V18C31.5731 18.064 31.3091 18.104 31.0691 18.12C30.8451 18.152 30.6531 18.168 30.4931 18.168C29.8531 18.168 29.3651 18.024 29.0291 17.736C28.6931 17.448 28.4931 17.096 28.4291 16.68L28.3571 16.032C27.7971 16.752 27.1091 17.304 26.2931 17.688C25.4931 18.056 24.6691 18.24 23.8211 18.24C22.9731 18.24 22.2211 18.072 21.5651 17.736C20.9091 17.384 20.3891 16.912 20.0051 16.32C19.6371 15.712 19.4531 15.032 19.4531 14.28ZM27.2771 14.928C27.6771 14.544 27.8771 14.176 27.8771 13.824V12.552C27.0451 12.216 26.2051 12.048 25.3571 12.048C24.5091 12.048 23.8211 12.232 23.2931 12.6C22.7651 12.952 22.5011 13.424 22.5011 14.016C22.5011 14.496 22.6931 14.928 23.0771 15.312C23.4611 15.696 24.0131 15.888 24.7331 15.888C25.2131 15.888 25.6771 15.8 26.1251 15.624C26.5891 15.448 26.9731 15.216 27.2771 14.928ZM36.4744 0.48H39.6904V13.968C39.6904 14.56 39.7864 14.952 39.9784 15.144C40.1704 15.336 40.4344 15.432 40.7704 15.432C41.0264 15.432 41.2904 15.4 41.5624 15.336C41.8344 15.272 42.0744 15.192 42.2824 15.096L42.7144 17.544C42.2824 17.752 41.7784 17.912 41.2024 18.024C40.6264 18.136 40.1064 18.192 39.6424 18.192C38.6344 18.192 37.8504 17.928 37.2904 17.4C36.7464 16.856 36.4744 16.088 36.4744 15.096V0.48ZM52.3716 18.24C51.0116 18.24 49.8356 17.936 48.8436 17.328C47.8516 16.72 47.0836 15.92 46.5396 14.928C45.9956 13.936 45.7236 12.864 45.7236 11.712C45.7236 10.544 45.9876 9.464 46.5156 8.472C47.0596 7.48 47.8276 6.688 48.8196 6.096C49.8116 5.504 50.9876 5.208 52.3476 5.208C53.7236 5.208 54.8916 5.504 55.8516 6.096C56.8276 6.688 57.5556 7.464 58.0356 8.424L54.8916 9.384C54.3316 8.424 53.4756 7.944 52.3236 7.944C51.6996 7.944 51.1396 8.104 50.6436 8.424C50.1476 8.728 49.7556 9.168 49.4676 9.744C49.1796 10.304 49.0356 10.96 49.0356 11.712C49.0356 12.448 49.1796 13.104 49.4676 13.68C49.7716 14.24 50.1716 14.688 50.6676 15.024C51.1636 15.344 51.7156 15.504 52.3236 15.504C52.8996 15.504 53.4276 15.368 53.9076 15.096C54.4036 14.808 54.7476 14.448 54.9396 14.016L58.0836 14.976C57.6516 15.92 56.9316 16.704 55.9236 17.328C54.9316 17.936 53.7476 18.24 52.3716 18.24ZM62.3424 13.296V5.424H65.5584V12.6C65.5584 14.536 66.2544 15.504 67.6464 15.504C68.2704 15.504 68.8704 15.32 69.4464 14.952C70.0384 14.568 70.5184 13.992 70.8864 13.224V5.424H74.1024V14.4C74.1024 14.752 74.1584 15 74.2704 15.144C74.3824 15.272 74.5824 15.352 74.8704 15.384V18C74.5504 18.064 74.2784 18.104 74.0544 18.12C73.8464 18.136 73.6544 18.144 73.4784 18.144C72.9024 18.144 72.4304 18.016 72.0624 17.76C71.7104 17.488 71.5024 17.12 71.4384 16.656L71.3664 15.648C70.8064 16.512 70.0864 17.16 69.2064 17.592C68.3264 18.024 67.3584 18.24 66.3024 18.24C65.0064 18.24 64.0224 17.824 63.3504 16.992C62.6784 16.144 62.3424 14.912 62.3424 13.296ZM79.6744 0.48H82.8904V13.968C82.8904 14.56 82.9864 14.952 83.1784 15.144C83.3704 15.336 83.6344 15.432 83.9704 15.432C84.2264 15.432 84.4904 15.4 84.7624 15.336C85.0344 15.272 85.2744 15.192 85.4824 15.096L85.9144 17.544C85.4824 17.752 84.9784 17.912 84.4024 18.024C83.8264 18.136 83.3064 18.192 82.8424 18.192C81.8344 18.192 81.0504 17.928 80.4904 17.4C79.9464 16.856 79.6744 16.088 79.6744 15.096V0.48ZM88.8516 14.28C88.8516 13.464 89.0756 12.752 89.5236 12.144C89.9876 11.52 90.6276 11.04 91.4436 10.704C92.2596 10.368 93.1956 10.2 94.2516 10.2C94.7796 10.2 95.3156 10.248 95.8596 10.344C96.4036 10.424 96.8756 10.544 97.2756 10.704V10.032C97.2756 9.232 97.0356 8.616 96.5556 8.184C96.0916 7.752 95.3956 7.536 94.4676 7.536C93.7796 7.536 93.1236 7.656 92.4996 7.896C91.8756 8.136 91.2196 8.488 90.5316 8.952L89.4996 6.84C90.3316 6.296 91.1796 5.888 92.0436 5.616C92.9236 5.344 93.8436 5.208 94.8036 5.208C96.5956 5.208 97.9876 5.656 98.9796 6.552C99.9876 7.448 100.492 8.728 100.492 10.392V14.4C100.492 14.752 100.548 15 100.66 15.144C100.772 15.272 100.972 15.352 101.26 15.384V18C100.972 18.064 100.708 18.104 100.468 18.12C100.244 18.152 100.052 18.168 99.8916 18.168C99.2516 18.168 98.7636 18.024 98.4276 17.736C98.0916 17.448 97.8916 17.096 97.8276 16.68L97.7556 16.032C97.1956 16.752 96.5076 17.304 95.6916 17.688C94.8916 18.056 94.0676 18.24 93.2196 18.24C92.3716 18.24 91.6196 18.072 90.9636 17.736C90.3076 17.384 89.7876 16.912 89.4036 16.32C89.0356 15.712 88.8516 15.032 88.8516 14.28ZM96.6756 14.928C97.0756 14.544 97.2756 14.176 97.2756 13.824V12.552C96.4436 12.216 95.6036 12.048 94.7556 12.048C93.9076 12.048 93.2196 12.232 92.6916 12.6C92.1636 12.952 91.8996 13.424 91.8996 14.016C91.8996 14.496 92.0916 14.928 92.4756 15.312C92.8596 15.696 93.4116 15.888 94.1316 15.888C94.6116 15.888 95.0756 15.8 95.5236 15.624C95.9876 15.448 96.3716 15.216 96.6756 14.928ZM105.129 11.712C105.129 10.512 105.369 9.416 105.849 8.424C106.329 7.432 106.993 6.648 107.841 6.072C108.689 5.496 109.657 5.208 110.745 5.208C111.673 5.208 112.505 5.44 113.241 5.904C113.993 6.352 114.577 6.928 114.993 7.632V0.48H118.209V14.4C118.209 14.752 118.265 15 118.377 15.144C118.489 15.272 118.681 15.352 118.953 15.384V18C118.377 18.112 117.921 18.168 117.585 18.168C117.009 18.168 116.529 18.024 116.145 17.736C115.777 17.448 115.569 17.072 115.521 16.608L115.473 15.816C115.009 16.6 114.377 17.2 113.577 17.616C112.793 18.032 111.969 18.24 111.105 18.24C109.937 18.24 108.905 17.952 108.009 17.376C107.113 16.784 106.409 16 105.897 15.024C105.385 14.032 105.129 12.928 105.129 11.712ZM114.993 13.392V10.392C114.737 9.688 114.297 9.104 113.673 8.64C113.049 8.176 112.409 7.944 111.753 7.944C111.097 7.944 110.521 8.128 110.025 8.496C109.529 8.848 109.145 9.32 108.873 9.912C108.601 10.488 108.465 11.112 108.465 11.784C108.465 12.472 108.617 13.104 108.921 13.68C109.225 14.24 109.633 14.688 110.145 15.024C110.673 15.344 111.273 15.504 111.945 15.504C112.553 15.504 113.153 15.304 113.745 14.904C114.353 14.504 114.769 14 114.993 13.392ZM129.574 18.24C128.198 18.24 127.014 17.944 126.022 17.352C125.046 16.744 124.294 15.944 123.766 14.952C123.238 13.96 122.974 12.888 122.974 11.736C122.974 10.568 123.238 9.488 123.766 8.496C124.31 7.504 125.07 6.712 126.046 6.12C127.038 5.512 128.214 5.208 129.574 5.208C130.934 5.208 132.102 5.512 133.078 6.12C134.07 6.712 134.83 7.504 135.358 8.496C135.886 9.488 136.15 10.568 136.15 11.736C136.15 12.888 135.886 13.96 135.358 14.952C134.83 15.944 134.07 16.744 133.078 17.352C132.102 17.944 130.934 18.24 129.574 18.24ZM126.286 11.736C126.286 12.472 126.43 13.128 126.718 13.704C127.006 14.264 127.398 14.704 127.894 15.024C128.39 15.344 128.95 15.504 129.574 15.504C130.182 15.504 130.734 15.344 131.23 15.024C131.726 14.688 132.118 14.24 132.406 13.68C132.71 13.104 132.862 12.448 132.862 11.712C132.862 10.992 132.71 10.352 132.406 9.792C132.118 9.216 131.726 8.768 131.23 8.448C130.734 8.112 130.182 7.944 129.574 7.944C128.95 7.944 128.39 8.112 127.894 8.448C127.398 8.768 127.006 9.216 126.718 9.792C126.43 10.352 126.286 11 126.286 11.736ZM148.208 8.208C147.232 8.208 146.36 8.4 145.592 8.784C144.824 9.152 144.272 9.688 143.936 10.392V18H140.72V5.424H143.672V8.112C144.104 7.248 144.664 6.568 145.352 6.072C146.056 5.576 146.792 5.304 147.56 5.256C147.896 5.256 148.112 5.264 148.208 5.28V8.208ZM151.467 14.28C151.467 13.464 151.691 12.752 152.139 12.144C152.603 11.52 153.243 11.04 154.059 10.704C154.875 10.368 155.811 10.2 156.867 10.2C157.395 10.2 157.931 10.248 158.475 10.344C159.019 10.424 159.491 10.544 159.891 10.704V10.032C159.891 9.232 159.651 8.616 159.171 8.184C158.707 7.752 158.011 7.536 157.083 7.536C156.395 7.536 155.739 7.656 155.115 7.896C154.491 8.136 153.835 8.488 153.147 8.952L152.115 6.84C152.947 6.296 153.795 5.888 154.659 5.616C155.539 5.344 156.459 5.208 157.419 5.208C159.211 5.208 160.603 5.656 161.595 6.552C162.603 7.448 163.107 8.728 163.107 10.392V14.4C163.107 14.752 163.163 15 163.275 15.144C163.387 15.272 163.587 15.352 163.875 15.384V18C163.587 18.064 163.323 18.104 163.083 18.12C162.859 18.152 162.667 18.168 162.507 18.168C161.867 18.168 161.379 18.024 161.043 17.736C160.707 17.448 160.507 17.096 160.443 16.68L160.371 16.032C159.811 16.752 159.123 17.304 158.307 17.688C157.507 18.056 156.683 18.24 155.835 18.24C154.987 18.24 154.235 18.072 153.579 17.736C152.923 17.384 152.403 16.912 152.019 16.32C151.651 15.712 151.467 15.032 151.467 14.28ZM159.291 14.928C159.691 14.544 159.891 14.176 159.891 13.824V12.552C159.059 12.216 158.219 12.048 157.371 12.048C156.523 12.048 155.835 12.232 155.307 12.6C154.779 12.952 154.515 13.424 154.515 14.016C154.515 14.496 154.707 14.928 155.091 15.312C155.475 15.696 156.027 15.888 156.747 15.888C157.227 15.888 157.691 15.8 158.139 15.624C158.603 15.448 158.987 15.216 159.291 14.928Z" fill="#0F241D"/>
<path d="M168.824 18V0.959999H172.136V18H168.824ZM175.692 18V0.959999H187.14V3.864H179.004V8.256H185.772V10.944H179.004V18H175.692Z" fill="#69B99D"/>
</svg>
